<svg
  xmlns="http://www.w3.org/2000/svg"
  viewBox="0 0 512 512"
  role="img"
  aria-labelledby="title desc"
>
  <title id="title">Avas Themes logo option</title>
  <desc id="desc">A color palette logo with an avatar centered inside the paint wheel.</desc>
  <defs>
    <clipPath id="avatar-clip">
      <circle cx="256" cy="256" r="84" />
    </clipPath>
  </defs>

  <path
    d="M256 0C114.615 0 0 114.615 0 256S114.615 512 256 512S512 397.385 512 256S397.385 0 256 0ZM256 336.842C211.352 336.842 175.158 300.648 175.158 256S211.352 175.158 256 175.158S336.842 211.352 336.842 256S300.648 336.842 256 336.842Z"
    fill="#ffffff"
  />
  <path
    d="M282.947 188.632H503.023C485.09 122.726 441.507 67.394 383.64 34.044L229.053 188.632H282.947Z"
    fill="#d4b6e6"
  />
  <path
    d="M229.053 188.632L383.639 34.044C346.068 12.39 302.482 0 256 0C232.681 0 210.101 3.135 188.632 8.978V229.053L229.053 188.632Z"
    fill="#ebafd1"
  />
  <path
    d="M188.632 229.053V8.978C122.726 26.91 67.394 70.493 34.045 128.36L188.631 282.948V229.053Z"
    fill="#e07188"
  />
  <path
    d="M503.024 188.632H282.947V188.633H283.905L323.368 229.053L477.955 383.64C499.611 346.068 512 302.482 512 256C512 232.681 508.865 210.099 503.024 188.632Z"
    fill="#b4d8f1"
  />
  <path
    d="M323.368 282.947V503.022C389.273 485.09 444.606 441.505 477.954 383.64L323.368 229.053V282.947Z"
    fill="#acfff4"
  />
  <path
    d="M282.947 323.368L128.361 477.956C165.932 499.61 209.518 512 256 512C279.319 512 301.899 508.865 323.368 503.023V282.947L282.947 323.368Z"
    fill="#95d5a7"
  />
  <path
    d="M229.053 323.368H8.976C26.91 389.274 70.493 444.606 128.36 477.956L282.948 323.368H229.053Z"
    fill="#f8e99b"
  />
  <path
    d="M188.632 282.947L34.045 128.36C12.389 165.932 0 209.518 0 256C0 279.319 3.135 301.901 8.976 323.368H229.052L188.632 282.947Z"
    fill="#efc27b"
  />
  <path
    d="M503.024 188.632C485.09 122.726 441.507 67.394 383.64 34.044L256 161.684V188.631H282.947H503.024Z"
    fill="#b681d5"
  />
  <path d="M383.639 34.044C346.068 12.39 302.482 0 256 0V161.684L383.639 34.044Z" fill="#e592bf" />
  <path
    d="M256 350.316V512C279.319 512 301.899 508.865 323.368 503.023V282.947L282.947 323.368L256 350.316Z"
    fill="#80cb93"
  />
  <polygon points="282.947 323.368 256 323.368 256 350.316" fill="#f6e27d" />

  <circle cx="256" cy="256" r="88" fill="#ffffff" stroke="#ffffff" stroke-width="10" />
  <g clip-path="url(#avatar-clip)">
    <svg
      x="172"
      y="172"
      width="168"
      height="168"
      viewBox="0 0 128 128"
      preserveAspectRatio="xMidYMid meet"
      aria-hidden="true"
    >
      <defs>
        <style>
          .cls-1 {
            fill: #95d5a7;
          }
          .cls-2 {
            fill: #80cb93;
            opacity: 0.3;
          }
          .cls-3 {
            fill: #393c54;
          }
          .cls-4 {
            fill: #f85565;
          }
          .cls-5 {
            fill: #fbc0aa;
          }
          .cls-6 {
            fill: #f8dc25;
          }
          .cls-7 {
            fill: #f2bc0f;
          }
          .cls-8 {
            fill: #ffffff;
          }
          .cls-11,
          .cls-13,
          .cls-14,
          .cls-15,
          .cls-9 {
            fill: none;
            stroke-linecap: round;
          }
          .cls-14,
          .cls-9 {
            stroke: #fbc0aa;
          }
          .cls-13,
          .cls-14,
          .cls-15,
          .cls-9 {
            stroke-linejoin: round;
          }
          .cls-9 {
            stroke-width: 12px;
          }
          .cls-10 {
            fill: #ffd8c9;
          }
          .cls-11 {
            stroke: #ffffff;
            stroke-miterlimit: 10;
            stroke-width: 3.68px;
            opacity: 0.1;
          }
          .cls-12 {
            fill: #515570;
          }
          .cls-13,
          .cls-15 {
            stroke: #515570;
            stroke-width: 2px;
          }
          .cls-14 {
            stroke-width: 4.71px;
          }
          .cls-15 {
            opacity: 0.2;
          }
        </style>
      </defs>
      <title />
      <circle class="cls-1" cx="64" cy="64" r="60" />
      <circle class="cls-2" cx="64" cy="64" r="48" />
      <path
        class="cls-3"
        d="M99,82a4,4,0,0,1-4-4V34h0a13,13,0,0,0-25.9,0h0l6,48a12,12,0,0,0,24,0Z"
      />
      <circle class="cls-4" cx="75" cy="36" r="10" />
      <path
        class="cls-3"
        d="M63,28h0A29.41,29.41,0,0,1,92.41,57.41v6.12A10.94,10.94,0,0,1,81.47,74.47H44.53A10.94,10.94,0,0,1,33.59,63.53V57.41A29.41,29.41,0,0,1,63,28Z"
      />
      <circle class="cls-5" cx="85.98" cy="74.31" r="6.43" />
      <path
        class="cls-6"
        d="M64,124a59.62,59.62,0,0,0,33-9.92l-2.66-7.44A10,10,0,0,0,85,100H41.05a10,10,0,0,0-9.42,6.64L29.36,113A59.74,59.74,0,0,0,64,124Z"
      />
      <path class="cls-7" d="M82.92,100H43.08a20,20,0,0,0,39.84,0Z" />
      <path class="cls-8" d="M72,101.25a9,9,0,0,1-18,0c0-5,4-3,9-3S72,96.28,72,101.25Z" />
      <line class="cls-9" x1="63" x2="63" y1="87.75" y2="101.5" />
      <circle class="cls-5" cx="40.02" cy="74.31" r="6.43" />
      <path
        class="cls-10"
        d="M63,98.84a23,23,0,0,1-23-23V60.76a23,23,0,0,1,46,0V75.87A23,23,0,0,1,63,98.84Z"
      />
      <path class="cls-11" d="M44.82,51A19.9,19.9,0,0,1,62.4,38.54" />
      <path
        class="cls-12"
        d="M88.82,58.82A25.82,25.82,0,0,0,62.27,33c-14.06.39-25.09,12.28-25.09,26.35v4a4.83,4.83,0,0,0,1.48,3.51,5.93,5.93,0,0,0,1.36,1V64a4,4,0,0,1,4-4h5.38a1,1,0,0,0,.9-.55L52,56l1.72,3.45a1,1,0,0,0,.9.55H82a4,4,0,0,1,4,4v3.89a5.93,5.93,0,0,0,1.36-1,4.83,4.83,0,0,0,1.48-3.51Z"
      />
      <path class="cls-13" d="M70.67,75.28a3,3,0,0,1,6,0" />
      <line class="cls-14" x1="62.5" x2="62.5" y1="77.5" y2="81.5" />
      <line class="cls-15" x1="72" x2="79" y1="68" y2="68" />
      <path class="cls-13" d="M55,75.28a3,3,0,0,0-6,0" />
      <line class="cls-15" x1="54" x2="47" y1="68" y2="68" />
      <path
        class="cls-3"
        d="M70.55,86a1,1,0,0,1,.94,1.07,8.56,8.56,0,0,1-17,0A1,1,0,0,1,55.45,86Z"
      />
      <path
        class="cls-4"
        d="M58,92.91a8.52,8.52,0,0,0,10.08,0C67,91.16,65.17,91,63,91S59,91.16,58,92.91Z"
      />
      <path class="cls-8" d="M68,88H58a1.84,1.84,0,0,1-1.73-2H69.77A1.84,1.84,0,0,1,68,88Z" />
    </svg>
  </g>
</svg>
